<?xml version="1.0" standalone="no"?>
<!DOCTYPE svg PUBLIC "-//W3C//DTD SVG 20010904//EN"
 "http://www.w3.org/TR/2001/REC-SVG-20010904/DTD/svg10.dtd">
<svg version="1.0" xmlns="http://www.w3.org/2000/svg"
 width="2133.000000pt" height="2133.000000pt" viewBox="0 0 2133.000000 2133.000000"
 preserveAspectRatio="xMidYMid meet">

<g transform="translate(0.000000,2133.000000) scale(0.100000,-0.100000)"
fill="#253a6b" stroke="none">
<path d="M18785 18399 c-143 -27 -593 -113 -1000 -190 -883 -167 -3361 -640
-5030 -960 -3721 -713 -8056 -1564 -8223 -1614 -39 -12 -67 -30 -110 -73 -193
-189 -168 -522 49 -664 79 -51 151 -78 206 -78 101 0 385 47 1128 186 848 159
5277 1007 10020 1919 1973 379 2907 557 2910 553 3 -3 732 -3795 1055 -5483
240 -1252 401 -2091 491 -2548 60 -309 77 -412 69 -422 -16 -19 -77 -40 -192
-65 -195 -43 -320 -128 -383 -263 -84 -175 -67 -325 50 -454 162 -179 304
-195 825 -88 446 91 594 172 647 354 15 53 15 62 -11 226 -189 1183 -1523
8232 -1755 9268 -45 200 -63 240 -143 311 -92 84 -209 137 -297 135 -25 -1
-163 -23 -306 -50z"/>
<path d="M17860 15859 c-117 -4 -321 -21 -510 -42 -384 -44 -2120 -229 -4725
-502 -1072 -113 -2485 -262 -3140 -331 -3331 -350 -5583 -598 -6170 -680 -154
-21 -186 -29 -218 -51 -114 -79 -183 -232 -175 -387 3 -68 10 -91 37 -143 46
-85 160 -194 246 -235 67 -31 68 -31 184 -25 216 11 1442 138 8566 887 4921
517 5729 600 5740 588 8 -8 161 -1436 535 -4998 154 -1471 301 -2863 325
-3094 46 -434 46 -444 5 -466 -10 -6 -104 -22 -207 -36 -346 -46 -422 -72
-525 -175 -173 -172 -169 -426 10 -604 65 -66 156 -113 241 -125 75 -10 223 0
581 41 458 52 611 85 708 152 54 36 116 130 132 199 29 118 -14 636 -211 2533
-356 3445 -698 6581 -779 7143 -21 143 -34 176 -99 245 -37 40 -103 78 -156
92 -59 15 -204 20 -395 14z"/>
<path d="M143 13148 l-143 -143 0 -3510 c0 -3384 11 -5628 29 -6111 10 -264
10 -264 102 -357 98 -98 149 -111 495 -127 777 -38 14863 -37 15924 0 592 20
820 50 877 112 40 45 61 149 73 358 67 1258 60 8730 -10 9550 -5 63 -18 131
-32 170 -22 62 -26 66 -78 92 -99 49 -320 69 -960 90 -248 7 -2733 12 -8245
15 l-7890 4 -142 -143z m16477 -5048 l0 -4310 -7875 0 -7875 0 0 4310 0 4310
7875 0 7875 0 0 -4310z"/>
<path d="M4535 11950 c-932 -7 -1228 -16 -1348 -41 -99 -21 -209 -104 -254
-193 -35 -69 -48 -119 -77 -289 -15 -84 -39 -180 -56 -225 -82 -212 -229 -377
-430 -481 -94 -49 -181 -75 -340 -101 -200 -34 -287 -70 -370 -152 -57 -56
-77 -105 -90 -214 -20 -174 -29 -982 -30 -2695 l0 -1736 93 -89 c126 -122 172
-145 306 -156 254 -20 493 -126 667 -296 140 -137 193 -257 279 -630 50 -218
82 -273 214 -371 l68 -51 4814 0 c5397 0 6004 6 6346 56 181 26 215 46 269
157 37 77 58 166 73 307 16 147 65 270 172 430 144 216 281 295 649 376 272
60 374 104 418 182 28 51 48 140 62 282 39 403 40 3806 0 4178 -14 136 -39
200 -101 262 -97 97 -215 146 -384 161 -184 15 -297 59 -445 170 -145 109
-273 285 -331 452 -19 55 -33 122 -39 193 -21 216 -47 280 -151 378 -106 101
-155 111 -630 127 -375 12 -7952 20 -9354 9z m8395 -920 c664 -10 868 -20 905
-44 11 -7 31 -42 44 -77 58 -155 178 -361 299 -510 209 -259 620 -549 856
-604 42 -10 51 -16 58 -41 28 -98 33 -1406 12 -2914 l-6 -436 -112 -43 c-282
-112 -485 -242 -684 -440 -193 -191 -316 -382 -412 -641 -23 -63 -47 -120 -51
-126 -7 -8 -1038 -13 -3777 -17 -2072 -4 -4350 -8 -5062 -9 l-1295 -3 -45 120
c-133 346 -320 600 -610 827 -120 93 -227 157 -442 261 l-188 91 0 1676 0
1675 103 35 c260 88 494 235 697 439 175 176 292 352 420 629 l75 162 4280 0
c2354 -1 4575 -5 4935 -10z"/>
<path d="M8640 10529 c-491 -28 -997 -223 -1395 -538 -107 -84 -298 -275 -388
-386 -239 -297 -417 -671 -480 -1010 -31 -165 -40 -311 -34 -588 7 -369 31
-509 134 -776 131 -343 333 -646 600 -901 359 -343 794 -561 1300 -652 112
-20 161 -23 388 -23 285 0 384 12 621 74 672 177 1259 659 1563 1285 175 360
254 692 254 1076 0 200 -8 286 -44 470 -123 623 -516 1205 -1059 1565 -451
300 -933 433 -1460 404z m245 -889 c77 -11 187 -32 245 -46 598 -148 1029
-599 1162 -1217 29 -136 32 -415 5 -552 -100 -512 -423 -930 -891 -1155 -204
-98 -330 -116 -726 -107 -281 7 -344 17 -495 81 -194 82 -347 187 -515 356
-208 208 -343 425 -402 645 -28 105 -41 313 -35 560 6 254 14 293 86 455 182
406 479 706 863 872 106 46 228 80 383 107 140 25 152 25 320 1z"/>
</g>
</svg>
